# xmcd
#
# Track frame offsets:
#	150
#	15277
#	33880
#	46488
#	59502
#	81179
#	99261
#	113581
#	133706
#	148685
#	163084
#
# Disc length: 2480 seconds
#
# Revision: 1
# Processed by: cddbd v1.5.2PL0 Copyright (c) Steve Scherf et al.
# Submitted via: audiograbber 1.83.01
#
DISCID=8709ae0b
DTITLE=Chris Knight - Almost Daylight
DYEAR=2019
DGENRE=Country
TTITLE0=I'm William Callahan
TTITLE1=Crooked Mile
TTITLE2=I Won't Look Back
TTITLE3=Go On
TTITLE4=The Damn Truth
TTITLE5=Send It on Down
TTITLE6=Almost Daylight
TTITLE7=Trouble up Ahead
TTITLE8=Everybody's Lonely Now
TTITLE9=Flesh and Blood
TTITLE10=Mexican Home
EXTD=
EXTT0=
EXTT1=
EXTT2=
EXTT3=
EXTT4=
EXTT5=
EXTT6=
EXTT7=
EXTT8=
EXTT9=
EXTT10=
PLAYORDER=
